<svg width="1200" height="675" viewBox="0 0 1200 675" xmlns="http://www.w3.org/2000/svg" role="img" aria-labelledby="title desc">
  <title id="title">Chat Buddy Real-Time Communication App</title>
  <desc id="desc">Messaging and video call themed cover for a Flutter and Firebase app.</desc>
  <defs>
    <linearGradient id="bg4" x1="0" y1="0" x2="1" y2="1">
      <stop offset="0%" stop-color="#065f46"/>
      <stop offset="100%" stop-color="#0ea5e9"/>
    </linearGradient>
  </defs>
  <rect width="1200" height="675" fill="url(#bg4)"/>

  <rect x="110" y="120" width="430" height="430" rx="40" fill="#ffffff" opacity="0.95"/>
  <rect x="160" y="180" width="250" height="70" rx="16" fill="#0ea5e9"/>
  <rect x="160" y="280" width="320" height="70" rx="16" fill="#22c55e"/>
  <rect x="160" y="380" width="210" height="70" rx="16" fill="#14b8a6"/>
  <polygon points="260,550 300,500 350,550" fill="#ffffff" opacity="0.95"/>

  <rect x="690" y="150" width="360" height="370" rx="35" fill="#ffffff" opacity="0.2"/>
  <rect x="740" y="220" width="260" height="170" rx="20" fill="#ffffff" opacity="0.85"/>
  <polygon points="845,390 880,435 915,390" fill="#ffffff" opacity="0.85"/>
  <circle cx="870" cy="300" r="42" fill="#0ea5e9"/>
  <polygon points="855,278 901,300 855,322" fill="#ffffff"/>

  <text x="110" y="85" font-size="48" font-family="Arial, Helvetica, sans-serif" font-weight="700" fill="#ffffff">CHAT BUDDY</text>
  <text x="110" y="635" font-size="40" font-family="Arial, Helvetica, sans-serif" font-weight="700" fill="#ccfbf1">REAL-TIME GROUP CHAT, VOICE, AND VIDEO CALLS</text>
</svg>
