<svg width="1200" height="675" viewBox="0 0 1200 675" xmlns="http://www.w3.org/2000/svg" role="img" aria-labelledby="title desc">
  <title id="title">FakeHate Multitask Detection</title>
  <desc id="desc">Security and moderation themed cover for fake news and hate speech detection.</desc>
  <defs>
    <linearGradient id="bg3" x1="0" y1="0" x2="1" y2="1">
      <stop offset="0%" stop-color="#7f1d1d"/>
      <stop offset="100%" stop-color="#ef4444"/>
    </linearGradient>
  </defs>
  <rect width="1200" height="675" fill="url(#bg3)"/>

  <path d="M250 155 L430 210 L430 360 C430 470 350 545 250 585 C150 545 70 470 70 360 L70 210 Z" fill="#ffffff" opacity="0.92"/>
  <path d="M250 230 L340 260 L340 350 C340 420 300 472 250 500 C200 472 160 420 160 350 L160 260 Z" fill="#ef4444"/>
  <rect x="236" y="295" width="28" height="110" rx="10" fill="#ffffff"/>
  <circle cx="250" cy="435" r="18" fill="#ffffff"/>

  <rect x="560" y="180" width="560" height="120" rx="20" fill="#ffffff" opacity="0.2"/>
  <rect x="560" y="330" width="460" height="120" rx="20" fill="#ffffff" opacity="0.18"/>
  <rect x="560" y="480" width="520" height="90" rx="20" fill="#ffffff" opacity="0.16"/>

  <circle cx="605" cy="240" r="18" fill="#fee2e2"/>
  <circle cx="605" cy="390" r="18" fill="#fee2e2"/>
  <circle cx="605" cy="525" r="18" fill="#fee2e2"/>

  <text x="120" y="95" font-size="48" font-family="Arial, Helvetica, sans-serif" font-weight="700" fill="#ffffff">FAKEHATE</text>
  <text x="120" y="145" font-size="42" font-family="Arial, Helvetica, sans-serif" font-weight="700" fill="#fecaca">MULTITASK DETECTION FOR FAKE NEWS + HATE SPEECH</text>
</svg>
