<svg width="1200" height="675" viewBox="0 0 1200 675" xmlns="http://www.w3.org/2000/svg" role="img" aria-labelledby="title desc">
  <title id="title">Boston MBTA Bus Equity and Reliability</title>
  <desc id="desc">Transit-themed cover with bus and equity chart visual elements.</desc>
  <defs>
    <linearGradient id="bg" x1="0" y1="0" x2="1" y2="1">
      <stop offset="0%" stop-color="#0b2d5c"/>
      <stop offset="100%" stop-color="#0ea5e9"/>
    </linearGradient>
  </defs>
  <rect width="1200" height="675" fill="url(#bg)"/>
  <circle cx="190" cy="170" r="95" fill="#ffffff" opacity="0.95"/>
  <text x="190" y="197" text-anchor="middle" font-size="120" font-family="Arial, Helvetica, sans-serif" font-weight="700" fill="#111827">T</text>

  <rect x="120" y="390" width="560" height="190" rx="28" fill="#ffffff" opacity="0.95"/>
  <rect x="160" y="430" width="240" height="80" rx="12" fill="#0b2d5c"/>
  <rect x="420" y="430" width="190" height="80" rx="12" fill="#0ea5e9"/>
  <circle cx="230" cy="560" r="24" fill="#1f2937"/>
  <circle cx="570" cy="560" r="24" fill="#1f2937"/>

  <rect x="760" y="145" width="300" height="380" rx="22" fill="#ffffff" opacity="0.2"/>
  <polyline points="800,460 860,390 920,410 980,300 1035,250" fill="none" stroke="#ffffff" stroke-width="12" stroke-linecap="round" stroke-linejoin="round"/>
  <circle cx="800" cy="460" r="10" fill="#ffffff"/>
  <circle cx="860" cy="390" r="10" fill="#ffffff"/>
  <circle cx="920" cy="410" r="10" fill="#ffffff"/>
  <circle cx="980" cy="300" r="10" fill="#ffffff"/>
  <circle cx="1035" cy="250" r="10" fill="#ffffff"/>

  <text x="120" y="95" font-size="48" font-family="Arial, Helvetica, sans-serif" font-weight="700" fill="#ffffff">BOSTON MBTA</text>
  <text x="120" y="145" font-size="44" font-family="Arial, Helvetica, sans-serif" font-weight="700" fill="#dbeafe">BUS EQUITY &amp; RELIABILITY</text>
</svg>
