<svg width="1200" height="675" viewBox="0 0 1200 675" xmlns="http://www.w3.org/2000/svg" role="img" aria-labelledby="title desc">
  <title id="title">Explainable Hate Speech Detection with RAG</title>
  <desc id="desc">AI and retrieval themed cover with neural nodes and document flow.</desc>
  <defs>
    <linearGradient id="bg2" x1="0" y1="0" x2="1" y2="1">
      <stop offset="0%" stop-color="#111827"/>
      <stop offset="100%" stop-color="#4338ca"/>
    </linearGradient>
  </defs>
  <rect width="1200" height="675" fill="url(#bg2)"/>

  <circle cx="260" cy="210" r="26" fill="#a5b4fc"/>
  <circle cx="360" cy="300" r="22" fill="#c4b5fd"/>
  <circle cx="250" cy="390" r="24" fill="#93c5fd"/>
  <circle cx="450" cy="210" r="18" fill="#ddd6fe"/>
  <circle cx="500" cy="360" r="18" fill="#bfdbfe"/>
  <line x1="260" y1="210" x2="360" y2="300" stroke="#c7d2fe" stroke-width="5"/>
  <line x1="360" y1="300" x2="250" y2="390" stroke="#c7d2fe" stroke-width="5"/>
  <line x1="260" y1="210" x2="450" y2="210" stroke="#c7d2fe" stroke-width="5"/>
  <line x1="360" y1="300" x2="500" y2="360" stroke="#c7d2fe" stroke-width="5"/>

  <rect x="670" y="130" width="390" height="430" rx="24" fill="#ffffff" opacity="0.1"/>
  <rect x="720" y="190" width="290" height="70" rx="12" fill="#e0e7ff"/>
  <rect x="720" y="285" width="250" height="70" rx="12" fill="#c7d2fe"/>
  <rect x="720" y="380" width="320" height="70" rx="12" fill="#a5b4fc"/>
  <line x1="865" y1="260" x2="845" y2="285" stroke="#ffffff" stroke-width="6"/>
  <line x1="845" y1="355" x2="880" y2="380" stroke="#ffffff" stroke-width="6"/>

  <text x="90" y="95" font-size="46" font-family="Arial, Helvetica, sans-serif" font-weight="700" fill="#ffffff">EXPLAINABLE AI</text>
  <text x="90" y="145" font-size="42" font-family="Arial, Helvetica, sans-serif" font-weight="700" fill="#c7d2fe">RAG-ASSISTED HATE SPEECH DETECTION</text>
</svg>
